<?xml version="1.0" encoding="UTF-8"?>
<svg xmlns="http://www.w3.org/2000/svg" width="180.043" height="30.768" viewBox="0 0 180.043 30.768">
  <g id="Group_492" data-name="Group 492" transform="translate(-104 -29.5)">
    <g id="Group_190" data-name="Group 190" transform="translate(3 9.5)">
      <g id="Alexion_logo" data-name="Alexion logo" transform="translate(101 20)">
        <g id="Group_172" data-name="Group 172">
          <g id="Group_170" data-name="Group 170" transform="translate(113.763 13.582)">
            <rect id="Rectangle_37" data-name="Rectangle 37" width="4.296" height="17.185" fill="#283c8c"/>
          </g>
          <path id="Path_173" data-name="Path 173" d="M124.6,83.346H108.131V69.025h-4.3V86.21H124.6Z" transform="translate(-63.055 -55.443)" fill="#283c8c"/>
          <path id="Path_174" data-name="Path 174" d="M143.107,86.21V69.025h20.766v2.864H147.4v4.3h10.741V79.05H147.4v4.3h16.469V86.21Z" transform="translate(-78.718 -55.443)" fill="#283c8c"/>
          <path id="Path_175" data-name="Path 175" d="M205.294,69.025h-5.013l-6.444,6.186-6.445-6.186H182.38l8.951,8.592L182.38,86.21h5.013l6.445-6.187,6.444,6.187h5.013l-8.951-8.593Z" transform="translate(-94.383 -55.443)" fill="#283c8c"/>
          <path id="Path_176" data-name="Path 176" d="M304.534,69.025v13.22l-14.321-13.22h-4.3V86.21h4.3V72.991L304.534,86.21h4.3V69.025Z" transform="translate(-135.684 -55.443)" fill="#283c8c"/>
          <path id="Path_177" data-name="Path 177" d="M240.694,70.457a1.432,1.432,0,0,1,1.432-1.432h20.049a1.432,1.432,0,0,1,1.433,1.432V84.778a1.432,1.432,0,0,1-1.433,1.432H242.126a1.432,1.432,0,0,1-1.432-1.432Zm17.544,12.889a1.074,1.074,0,0,0,1.074-1.074V72.963a1.074,1.074,0,0,0-1.074-1.074H246.065a1.074,1.074,0,0,0-1.074,1.074v9.309a1.074,1.074,0,0,0,1.074,1.074Z" transform="translate(-117.641 -55.443)" fill="#283c8c"/>
          <path id="Path_178" data-name="Path 178" d="M145.668,48.787s-6.549-2.374-24.458-2.374c-22.81,0-45.186,7.426-60.224,13.82l-6.369-8.812L36,77.18h5.013l2.3-3.39c2.162-1.294,8.218-4.825,16.566-8.9L68.222,77.18h5.013L63.2,63.3c15.775-7.4,38.082-15.818,58-15.818,17.872,0,24.1,1.92,24.1,1.92a.358.358,0,1,0,.358-.619Zm-97.055,17.2,6-8.843,3.072,4.523C54.1,63.27,51.031,64.759,48.612,65.989Z" transform="translate(-36 -46.413)" fill="#283c8c"/>
          <path id="Path_179" data-name="Path 179" d="M225.887,60.36a.361.361,0,0,1-.359-.359c0-.464.58-1.406-.882-3.937h0c-1.461-2.532-2.569-2.5-2.969-2.733a.359.359,0,0,1-.131-.489h0a.359.359,0,0,1,.489-.131c.4.23.928,1.205,3.851,1.205h0c2.924,0,3.448-.975,3.851-1.205a.36.36,0,0,1,.49.131h0a.36.36,0,0,1-.131.49c-.4.235-1.508.2-2.97,2.733h0c-1.461,2.532-.879,3.473-.882,3.938a.359.359,0,0,1-.358.358h0Z" transform="translate(-109.977 -48.902)" fill="#d21e2d"/>
          <g id="Group_171" data-name="Group 171" transform="translate(174.952 12.456)">
            <path id="Path_180" data-name="Path 180" d="M329.545,72.226a2.546,2.546,0,1,1,2.546-2.546A2.549,2.549,0,0,1,329.545,72.226Zm0-4.712a2.167,2.167,0,1,0,2.167,2.167A2.187,2.187,0,0,0,329.545,67.514Zm.52,3.445-.412-1.084h-.585v1.084h-.487V68.272h.9c.617,0,1.094.141,1.094.866,0,.39-.152.51-.466.661l.5,1.159Zm-.455-2.221h-.542v.7h.585c.217,0,.412-.1.412-.347C330.066,68.825,329.838,68.737,329.611,68.737Z" transform="translate(-327 -67.134)" fill="#283c8c"/>
          </g>
        </g>
      </g>
    </g>
  </g>
</svg>
