<?xml version="1.0" encoding="utf-8"?><svg xmlns="http://www.w3.org/2000/svg" width="1584.762" height="306.006" viewBox="0 0 1584.762 306.006">
  <g id="Beyond_Meat-Horizontal-Logo.wine" transform="translate(0)">
    <path id="Path_1" data-name="Path 1" d="M253.775,154.728l-.531.048c-1.488.138-2.987.244-4.489.313l-.233.008q-2.14.091-4.282.1h-.08c-.86,0-1.727-.019-2.6-.045-.178-.005-.353-.016-.531-.024q-1.148-.044-2.295-.117l-.379-.027q-2.789-.194-5.561-.562l-.175-.027-.151-.008a127.469,127.469,0,0,1-26.77-7.065l-.1-.04c-1.069-.424-2.138-.857-3.216-1.295-2.26-.929-4.518-1.878-6.773-2.826-7.75-3.255-15.765-6.622-24-9.217a67.038,67.038,0,0,0-18.866-3.117c-.159-.005-.324-.005-.486-.013l-.159,0h-.045a50.784,50.784,0,0,0-9.153.533,74.087,74.087,0,0,0-10.657,2.162c1.067-1.345,2.12-2.706,3.147-4.086a30.685,30.685,0,0,0,4.664-10.079c.422-1.472,1.4-4.9.2-8.3.228-.207.454-.419.685-.626a27.948,27.948,0,0,0,5.237-4.33,84.861,84.861,0,0,1,19.054-11,77.415,77.415,0,0,1,37.615-5.723c38.159,3.847,52.868,11.947,79.77-17.794A153.1,153.1,0,0,0,14.528,87.883c6.747,6.519,20.307,12.989,46.747,7.052a37.3,37.3,0,0,1,35.421,0c45.76,10.278,52.987-16.6,52.987-16.6,0,19.023-7.593,27.406-19.1,30.9a13.757,13.757,0,0,1,2.478,1.21c2.457,1.565,2.889,3.616,1.8,7.413a25.927,25.927,0,0,1-3.8,8.331c-4.372,5.866-9.2,11.4-13.849,17.062-.024.045-.048.021-.034.154a1.183,1.183,0,0,0,1.767,1.013c.252-.117.5-.239.748-.355a76.941,76.941,0,0,1,23.931-7.36,61.379,61.379,0,0,1,26.364,2.4c10.339,3.255,20.3,7.755,30.346,11.886,1.1.446,2.189.891,3.284,1.321,9.185,3.672,18.519,6.8,28.462,7.468a91.554,91.554,0,0,0,12.159.822c3.274,0,7.126-.154,10.188-.438q.052,10.411,0,20.805v68.269a6.991,6.991,0,0,1-7.171,7.256,7.154,7.154,0,0,1-6.813-6.842l-.462-8.238a130.942,130.942,0,0,0-11.488-38.947c-2.271,7.2-4.476,14.181-6.646,21.081s-4.319,13.69-6.46,20.5l-2.393,8.047a6.279,6.279,0,0,1-8.4,4.006,6.194,6.194,0,0,1-3.81-6.29s4.136-34.044,2.21-51.99c-17.431,11.042-36.406,15.351-56.7,15.688-.528,12.247-1.04,23.472-1.576,35.846v.767a6.479,6.479,0,0,1-7.062,6.455,6.66,6.66,0,0,1-5.871-5.855l-1.5-10.742-3.847-24.692h-.873c-1.114,7.957-2.229,15.924-3.369,24.037l-1.353,11.138a6.625,6.625,0,0,1-7.779,5.715,6.764,6.764,0,0,1-5.434-6.466l-.531-13.035q-.622-13.159-1.332-26.313a6.429,6.429,0,0,0-1.4-2.7l-.08-.125a96.143,96.143,0,0,1-11.915-25.509q-2.886-9.638-5.715-19.294c5-1.934,9.673-5.664,10.321-6.744s-.663-2.266-1.953-1.494a24.319,24.319,0,0,1-7.468,2.749c-4.59.393-9.233.239-13.849.178-5.651-.074-9.185-3.73-9.389-9.381-.08-2.337.09-4.866-.73-6.967-3.377-8.662-5.792-17.508-5.954-26.852-.034-1.82-.616-2.608-1.892-2.852-3.523.119-6.978.2-10.3.146-15.635-.231-28.621-3.131-34.206-16.136A153.041,153.041,0,1,0,304.8,133.094a93.273,93.273,0,0,1-51.027,21.631" transform="translate(0)" fill="#75c154"/>
    <path id="Path_2" data-name="Path 2" d="M139.905,170.445h46.721c30.638,0,49.743-13.616,49.743-41.035,0-15.128-7.19-25.716-19.861-31.58,9.838-5.863,14.942-15.125,14.942-26.663,0-25.146-17.778-38.762-48.419-38.762H139.905Zm45.394-58.62c19.293,0,24.589,5.861,24.589,17.02s-7.946,17.4-23.265,17.4H166.194V111.825Zm-2.08-55.216c15.51,0,21.75,4.537,21.75,14.56,0,9.644-5.672,16.072-21.941,16.072H166.194V56.609Zm66.2,113.836h81.9V145.294H275.708v-31.58h55.609V88.563H275.708V57.556h55.609V32.4h-81.9Zm131.869,0H407.58V105.582L451.838,32.4H422.9L394.529,79.869,366.345,32.4h-28.94l43.882,72.612Zm122.79,1.889a70.911,70.911,0,1,0-70.551-70.912A70.544,70.544,0,0,0,504.077,172.334Zm0-25.907c-24.78,0-44.45-20.23-44.45-45s19.673-45,44.45-45a45.006,45.006,0,0,1,0,90.008Zm82.447,24.018h26.292V74.57l60.525,95.874h28V32.4H675.045V125.25L616.412,32.4H586.525Zm132.628,0h38.775c42.181,0,71.875-29.688,71.875-69.023,0-39.141-26.292-69.017-73.01-69.017H719.152ZM753.767,56.8c33.856,0,49.745,18.532,49.745,44.625,0,25.34-18.725,44.625-48.612,44.625h-9.456V56.8Zm119.58,113.647h26.292V75.329l41.043,55.593L982.3,74.761v95.683h26.292V32.4h-24.78L940.873,89.889,899.45,32.4h-26.1Zm153.152,0h81.9V145.294H1052.79v-31.58H1108.4V88.563H1052.79V57.556H1108.4V32.4h-81.9Zm91.085,0h27.428l8.32-24.018h52.961l8.323,24.018h27.425L1193.053,32.4h-26.48Zm62.228-100.6,17.781,51.433h-35.559Zm79.224,100.6h26.292V57.554h36.692V32.4h-99.676V57.554h36.692ZM1342.507,52.47a10.981,10.981,0,1,0-10.985-10.978,10.984,10.984,0,0,0,10.985,10.978m0-2.016a8.964,8.964,0,1,1,8.787-8.962,8.8,8.8,0,0,1-8.787,8.962m-3.892-3.72h2.1V37.621h1.849c1.287,0,2.345.531,2.345,1.849a2.163,2.163,0,0,1-2.375,2.141h-1.03l3.109,5.12h2.486l-2.427-3.746a3.548,3.548,0,0,0,2.457-3.6c0-1.934-1.637-3.6-4.271-3.6h-4.245V46.732" transform="translate(231.274 50.432)" fill="#252022"/>
  </g>
</svg>
