<?xml version="1.0" encoding="UTF-8"?>
<!DOCTYPE svg PUBLIC "-//W3C//DTD SVG 1.1//EN" "http://www.w3.org/Graphics/SVG/1.1/DTD/svg11.dtd">
<!-- Creator: CorelDRAW 2017 -->
<svg xmlns="http://www.w3.org/2000/svg" xml:space="preserve" width="432px" height="132px" version="1.1" style="shape-rendering:geometricPrecision; text-rendering:geometricPrecision; image-rendering:optimizeQuality; fill-rule:evenodd; clip-rule:evenodd"
viewBox="0 0 432 131.98"
 xmlns:xlink="http://www.w3.org/1999/xlink">
 <defs>
  <style type="text/css">
   <![CDATA[
    .fil0 {fill:none}
    .fil1 {fill:black}
    .fil2 {fill:white}
   ]]>
  </style>
 </defs>
 <g id="Layer_x0020_1">
  <metadata id="CorelCorpID_0Corel-Layer"/>
  <g id="BR5FWordmark5FBlack">
   <g>
    <rect class="fil0" x="175.97" width="256.03" height="131.98"/>
    <g>
     <g id="report_3_">
      <path class="fil1" d="M267.27 71.49l-1.36 0 -3.45 0 -4.25 0 -6.8 0 0 6.54 0 12.1 0 6.6 0 18.75 6.6 0 0 -18.7 4.43 0 3.46 0 1.36 0 6.14 -6.39 0 -0.26 0 -12.1 0 -0.26 -6.13 -6.28zm-9.26 6.6l6.52 0 2.28 2.4 0 7.16 -2.28 2.52 -6.52 0 0 -12.08z"/>
      <polygon class="fil1" points="245.58,78.09 245.58,71.49 232.61,71.49 225.79,71.49 225.79,78.03 225.79,90.13 225.79,96.73 225.79,108.83 225.79,115.48 232.61,115.48 245.58,115.48 245.58,108.88 232.39,108.88 232.39,96.78 243.38,96.78 243.38,90.18 232.39,90.18 232.39,78.09 "/>
      <polygon class="fil1" points="352.26,71.49 333.57,71.49 333.57,78.09 339.51,78.09 339.51,115.48 346.11,115.48 346.11,78.09 352.26,78.09 "/>
      <path class="fil1" d="M294.51 71.49l-1.36 0 -3.13 0 -0.32 0 -3.15 0 -1.36 0 -6.5 6.28 0 0.87 0 2.64 0 24.3 0 2.64 0 0.87 6.5 6.39 0.81 0 3.7 0 0.32 0 3.13 0 1.36 0 6.17 -6.39 0 -0.26 0 -0.61 0 -2.64 0 -4.45 0 -19.85 0 -3.25 0 -0.26 -6.17 -6.28zm-0.42 34.88l-2.29 2.51 -3.88 0 -2.63 -2.52 0 -25.87 2.63 -2.4 3.88 0 2.29 2.39 0 20.65 0 5.24z"/>
      <g>
       <path class="fil1" d="M210.12 96.78l3.35 18.7 6.6 0 -3.81 -21.28 3.7 -3.75 0 -12.64 -6.22 -6.32 -15.78 0 0 43.99 6.6 0 0 -18.7 5.56 0zm-5.56 -18.69l6.45 0 2.35 2.46 0 7.16 -2.35 2.47 -6.45 0 0 -12.09z"/>
      </g>
      <g>
       <path class="fil1" d="M318.67 96.78l3.35 18.7 6.6 0 -3.81 -21.28 3.7 -3.75 0 -12.64 -6.23 -6.32 -15.77 0 0 43.99 6.6 0 0 -18.7 5.56 0zm-5.56 -18.69l6.45 0 2.35 2.46 0 7.16 -2.35 2.47 -6.45 0 0 -12.09z"/>
      </g>
     </g>
     <g id="bleacher_3_">
      <path class="fil1" d="M213.74 16.5l-1.37 0 -3.45 0 -4.25 0 -6.71 0 0 6.54 0 12.1 0 6.6 0 12.1 0 6.65 6.71 0 4.25 0 3.45 0 1.37 0 6.22 -6.39 0 -0.26 0 -12.1 0 -0.27 -3.04 -3.03 3.04 -3.04 0 -0.26 0 -12.1 0 -0.26 -6.22 -6.28zm-9.18 6.6l6.45 0 2.35 2.4 0 7.16 -2.35 2.52 -2.09 0 -4.36 0 0 -12.08zm0 18.69l4.36 0 2.09 0 2.35 2.41 0 7.16 -2.35 2.52 -6.45 0 0 -12.09z"/>
      <polygon class="fil1" points="349.95,16.5 349.95,35.19 341.16,35.19 341.16,16.5 334.56,16.5 334.56,35.14 334.56,41.74 334.56,60.49 341.16,60.49 341.16,41.79 349.95,41.79 349.95,60.49 356.55,60.49 356.55,41.74 356.55,35.14 356.55,16.5 "/>
      <polygon class="fil1" points="269.67,23.1 269.67,16.5 256.64,16.5 249.87,16.5 249.87,23.04 249.87,35.14 249.87,41.74 249.87,53.84 249.87,60.49 256.64,60.49 269.67,60.49 269.67,53.89 256.47,53.89 256.47,41.79 267.47,41.79 267.47,35.19 256.47,35.19 256.47,23.1 "/>
      <polygon class="fil1" points="382.29,23.1 382.29,16.5 369.29,16.5 362.49,16.5 362.49,23.04 362.49,35.14 362.49,41.74 362.49,53.84 362.49,60.49 369.29,60.49 382.29,60.49 382.29,53.89 369.09,53.89 369.09,41.79 380.09,41.79 380.09,35.19 369.09,35.19 369.09,23.1 "/>
      <polygon class="fil1" points="232.39,53.89 232.39,16.5 225.79,16.5 225.79,53.84 225.79,60.49 232.5,60.49 244.48,60.49 244.48,53.89 "/>
      <polygon class="fil1" points="322.56,16.5 321.2,16.5 318.06,16.5 317.74,16.5 314.6,16.5 313.23,16.5 306.73,22.78 306.73,23.66 306.73,26.29 306.73,50.59 306.73,53.22 306.73,54.1 313.23,60.49 314.05,60.49 317.74,60.49 318.06,60.49 321.2,60.49 322.56,60.49 328.73,54.1 328.73,53.84 328.73,50.59 328.73,46.19 322.13,46.19 322.13,51.38 319.84,53.89 315.96,53.89 313.33,51.37 313.33,25.5 315.96,23.1 319.84,23.1 322.13,25.49 322.13,30.8 328.73,30.8 328.73,26.29 328.73,23.04 328.73,22.78 "/>
      <path class="fil1" d="M295.18 60.49l6.6 0 -7.75 -43.99 -3.24 0 -2.15 0 -1.22 0 -2.13 0 -3.25 0 -7.75 43.99 6.6 0 2.13 -12.1 10.03 0 2.13 12.1zm-10.99 -18.7l3.3 -18.69 1.11 0 3.3 18.69 -7.71 0z"/>
      <g>
       <path class="fil1" d="M400.16 41.79l3.36 18.7 6.59 0 -3.8 -21.28 3.69 -3.75 0 -12.64 -6.22 -6.32 -15.77 0 0 43.99 6.6 0 0 -18.7 5.55 0zm-5.55 -18.69l6.44 0 2.36 2.46 0 7.16 -2.36 2.47 -6.44 0 0 -12.09z"/>
      </g>
     </g>
    </g>
    <g>
     <rect class="fil1" width="175.97" height="131.98"/>
     <g id="_1925928199280">
      <g>
       <path class="fil2" d="M53.33 22l-31.33 0 0 87.98 31.33 0 12.66 -12.66 0 -25.26 -6.06 -6.06 6.06 -6.06 0 -25.29 -12.66 -12.65zm-18.14 37.39l0 -24.2 12.66 0 4.94 4.94 0 14.33 -4.94 4.93 -12.66 0zm12.66 13.2l4.94 4.94 0 14.33 -4.94 4.93 -12.66 0 0 -24.19 12.66 -0.01zm0 0l0 0 0 0z"/>
      </g>
      <path class="fil2" d="M155.62 109.98l-10.93 -40.78 9.28 -9.28 0 -0.53 0 -24.2 0 -0.54 -12.66 -12.65 -2.74 0 -6.9 0 -8.49 0 -13.2 0 0 13.19 0 24.2 0 13.2 0 37.39 13.2 0 0 -37.39 8.49 0 0.73 0 10.02 37.39 13.2 0zm-32.44 -74.79l12.66 0 4.93 4.94 0 14.33 -4.93 4.94 -12.66 0 0 -24.21z"/>
      <polygon class="fil2" points="76.99,84.76 98.98,62.77 98.98,47.21 76.99,69.21 "/>
     </g>
    </g>
   </g>
  </g>
 </g>
</svg>
