<?xml version="1.0" encoding="iso-8859-1"?><svg id="Layer_1" data-name="Layer 1" xmlns="http://www.w3.org/2000/svg" viewBox="0 0 170.08 59.59">
  <g id="_22OKCS" data-name="22OKCS">
    <g>
      <path d="M31.63,9.09a60.58,60.58,0,0,1,6.89,1.06A24.48,24.48,0,0,1,56.4,36.91,24.42,24.42,0,0,1,35.08,58.6c-1,.15-2.07.16-3.28.25V63.8c-10.54-.35-19-4.5-24.65-13.16C.35,40.31,0,29.4,6.29,18.73,11.87,9.22,20.59,4.65,31.67,4.2V9.13c-1.36.15-2.72.23-4.07.45a24.79,24.79,0,0,0-4.19,47.79,20.71,20.71,0,0,0,8.28,1.33V54c-.1-.08-.12-.13-.16-.13l-.6-.05c-8.29-.68-14.33-4.77-17.48-12.44s-1.66-14.82,3.94-20.92a18.07,18.07,0,0,1,14.25-6.19V19c-9.33.54-14.23,7.55-14.68,13.74a14.47,14.47,0,0,0,2.75,9.9,15,15,0,0,0,12.11,6.24v5c.86-.08,1.53-.12,2.2-.2A20,20,0,0,0,51.47,36.41c1.18-8.42-3.81-17.08-11.9-20.58a15.4,15.4,0,0,0-8-1.52C31.62,12.57,31.62,10.83,31.63,9.09Z" transform="translate(-1.82 -4.2)"/>
      <path d="M75.64,46v7.25H72.39V36.71h3.23v6.42h7.47V36.72h3.19V53.27H83.17V46Z" transform="translate(-1.82 -4.2)"/>
      <path d="M86,16.79,84.14,19A24.68,24.68,0,0,0,82,17.63a4.79,4.79,0,0,0-6.78,2.95,7.94,7.94,0,0,0,0,4.75,4.79,4.79,0,0,0,7.24,2.82c.65-.38,1.25-.87,2-1.37l1.86,2.11c-3,3.48-8.75,3.9-12,.95-3.5-3.17-3.74-9.83-.47-13.25C76.79,13.39,82.61,13.46,86,16.79Z" transform="translate(-1.82 -4.2)"/>
      <path d="M122.14,26.23h-8.35a2.76,2.76,0,0,0,1.56,2.51c2,.94,3.65.1,5.22-1.28l1.72,1.84c-1.62,2.31-5.13,3.18-8.05,2a6.13,6.13,0,0,1-3.66-6.66c.64-4.35,3.57-6.48,7.69-5.61C121.29,19.71,122.81,22.46,122.14,26.23Zm-8.25-2.38h5.24a2.27,2.27,0,0,0-2.2-2.41A2.59,2.59,0,0,0,113.89,23.85Z" transform="translate(-1.82 -4.2)"/>
      <path d="M127.37,36.69h3v5.5A5.44,5.44,0,0,1,134.93,41,3.55,3.55,0,0,1,138,44.49c.09,2.89,0,5.78,0,8.77h-3V47.5c0-.56,0-1.13,0-1.69a2.08,2.08,0,0,0-2-2.25,2.25,2.25,0,0,0-2.5,1.95,26.86,26.86,0,0,0-.12,3.48c0,1.41,0,2.81,0,4.28h-3Z" transform="translate(-1.82 -4.2)"/>
      <path d="M111.41,53.29h-2.54l-.23-.87a5.81,5.81,0,0,1-5.16,1.2,3.31,3.31,0,0,1-2.86-2.57,3.22,3.22,0,0,1,1.7-3.78,46.43,46.43,0,0,1,5.51-1.59,4.08,4.08,0,0,1,.57-.11c.22-1.27-.4-2-1.75-2.12-1.69-.15-2.88.79-4,1.94l-1.87-1.68c1.84-2.82,6.57-3.79,9.14-1.82a3.62,3.62,0,0,1,1.46,2.22C111.51,47.14,111.41,50.19,111.41,53.29Zm-2.94-5.59c-1.39.39-2.74.71-4,1.19a1.73,1.73,0,0,0-.8,1.21,1.25,1.25,0,0,0,.7,1,3.34,3.34,0,0,0,3.21-.42A2.63,2.63,0,0,0,108.47,47.7Z" transform="translate(-1.82 -4.2)"/>
      <path d="M170.25,27.51l1.63,1.82c-2.35,2.93-7.26,3.29-9.86.79s-2.34-7.39.22-9.73a6.59,6.59,0,0,1,7-.81c2.06,1.08,3,3.37,2.54,6.53h-8.4a2.77,2.77,0,0,0,1.47,2.6C166.94,29.83,168.64,28.85,170.25,27.51Zm-1.34-3.62c-.35-1.78-1.21-2.56-2.68-2.56a2.76,2.76,0,0,0-2.76,2.56Z" transform="translate(-1.82 -4.2)"/>
      <path d="M99.61,51.34a7.12,7.12,0,0,1-7.16,2.19c-2.76-.53-4.39-2.75-4.52-5.9-.18-4.45,3-7.31,7.25-6.62,3.24.53,5,3.41,4.24,7.14H91.08c.36,3.26,3.37,3.84,6.82,1.37Zm-8.43-5.53h5.33a2.47,2.47,0,0,0-2.61-2.5A2.63,2.63,0,0,0,91.18,45.81Z" transform="translate(-1.82 -4.2)"/>
      <path d="M86.77,25.32c0-3.84,2.56-6.43,6.3-6.41a6.1,6.1,0,0,1,6.22,6.41A6.13,6.13,0,0,1,93,31.8C89.29,31.8,86.77,29.18,86.77,25.32Zm9.41.07a3.63,3.63,0,0,0-2.3-3.72,3,3,0,0,0-3.76,2.11C89.38,26,90.24,28.38,92,29,94.22,29.74,96.15,28.06,96.18,25.39Z" transform="translate(-1.82 -4.2)"/>
      <path d="M132.85,27.32l1.86,1.59a6.14,6.14,0,0,1-7.09,2.64,5.84,5.84,0,0,1-4.31-5.5c-.25-3,1.06-5.54,3.46-6.57a6.67,6.67,0,0,1,7.76,1.75l-2,1.69c-2.51-1.71-4-1.81-5.29-.26a4.71,4.71,0,0,0,.19,5.6C128.77,29.64,130.34,29.38,132.85,27.32Z" transform="translate(-1.82 -4.2)"/>
      <path d="M148.46,19.47c.11-.07.14-.1.17-.1,3-.27,3-.27,3.84,2.56l1.93,6.52,2.72-9.08h3.2c-.9,2.65-1.77,5.23-2.65,7.81l-.55,1.59c-1,2.93-1,2.94-4,2.6a1.08,1.08,0,0,1-.78-.53C151,27.05,149.74,23.25,148.46,19.47Z" transform="translate(-1.82 -4.2)"/>
      <path d="M143,21.72h-2.79c0,2.15,0,4.23.05,6.31,0,.33.59.77,1,.92a5.62,5.62,0,0,0,1.66,0l.34,2.49a30.44,30.44,0,0,1-4,0c-1.35-.16-2.06-1.3-2.09-3,0-1.85,0-3.7,0-5.55,0-.39,0-.79-.06-1.23l-2-.11V19.39l2-.12V15.7h3.06v3.55l2.86.13Z" transform="translate(-1.82 -4.2)"/>
      <path d="M120,41.26V37.67H123v3.62h2.8v2.34h-2.78c0,2.21,0,4.3,0,6.37,0,.34.6.8,1,.93a5.19,5.19,0,0,0,1.64-.07,13.91,13.91,0,0,1,.28,1.89.79.79,0,0,1-.53.59,14.44,14.44,0,0,1-3.34.15c-1.48-.21-2.16-1.3-2.18-3.15,0-2.17,0-4.34,0-6.63l-2.06-.12V41.36Z" transform="translate(-1.82 -4.2)"/>
      <path d="M100.88,14.7h2.9V31.3h-2.9Z" transform="translate(-1.82 -4.2)"/>
      <path d="M106.15,14.71H109v16.6h-2.86Z" transform="translate(-1.82 -4.2)"/>
      <path d="M113.69,36.67h2.8v16.6h-2.8Z" transform="translate(-1.82 -4.2)"/>
      <path d="M144.46,19.39h2.92V31.3h-2.92Z" transform="translate(-1.82 -4.2)"/>
      <path d="M147.69,16.17a1.61,1.61,0,0,1-1.75,1.69,1.74,1.74,0,0,1-1.81-1.81,1.85,1.85,0,0,1,1.81-1.75A1.72,1.72,0,0,1,147.69,16.17Z" transform="translate(-1.82 -4.2)"/>
    </g>
  </g>
</svg>
