<?xml version="1.0" encoding="UTF-8"?>
        <svg xmlns="http://www.w3.org/2000/svg" xmlns:xlink="http://www.w3.org/1999/xlink" version="1.1" viewBox="0 0 315 69" role="img" aria-labelledby="docusign-logo-id" aria-describedby="docusign-logo-desc">
          <title id="docusign-logo-id">DocuSign | Electronic Signature Industry Leader</title>
          <desc id="“docusign-logo-desc”">DocuSign corporate logo image.</desc>
          <g fill="none" fill-rule="evenodd">
          <g transform="translate(0 .91321)">
          <path d="m21.2 44.94c10.339 0 14.369-6.3114 14.369-17.11s-4.7134-18.326-14.064-18.326h-10.481v35.436h10.177zm-21.201-44.865h22.873c14.521 0 23.872 11.711 23.872 27.755 0 8.8212-2.9651 16.577-8.6671 21.368-4.0293 3.3461-9.275 5.2469-16.117 5.2469h-21.961v-54.37z" fill="#000000"></path>
          </g>
          <path d="m78.232 35.892c0-7.6041-3.573-12.775-9.883-12.775-6.386 0-9.883 5.1708-9.883 12.775 0 7.6045 3.497 12.699 9.883 12.699 6.31 0 9.883-5.0948 9.883-12.699m-30.258 0c0-11.634 8.2868-20.607 20.375-20.607 12.088 0 20.374 8.9729 20.374 20.607s-8.2868 20.608-20.374 20.608c-12.088 0-20.375-8.9733-20.375-20.608" fill="#000000"></path>
          <path d="m90.433 35.892c0-11.634 7.6024-20.607 19.462-20.607 10.112 0 16.346 5.8554 17.714 14.296h-10.111c-0.68402-3.4217-3.3449-6.0072-7.1461-6.0072-6.2339 0-9.4267 4.7905-9.4267 12.319 0 7.3763 2.9647 12.319 9.2746 12.319 4.1814 0 7.1465-2.2051 7.8305-6.6157h9.9595c-0.68444 8.2887-7.1465 14.904-17.562 14.904-12.316 0-19.995-8.9733-19.995-20.608" fill="#000000"></path>
          <path d="m154.91 55.359v-4.5623h-0.22773c-2.6613 3.5739-5.702 5.6272-11.176 5.6272-8.6667 0-13.533-5.5512-13.533-14.068v-26.007h10.263v24.258c0 4.5623 2.0529 7.0713 6.4621 7.0713 4.8659 0 7.8305-3.6495 7.8305-8.8204v-22.509h10.34v39.01h-9.9595z" fill="#000000"></path>
          <path d="m215.24 55.359h10.339v-39.01h-10.339v39.01zm0-44.463h10.339v-9.6696h-10.339v9.6696z" fill="#000000"></path>
          <path d="m257.16 34.143c0-5.7033-3.0407-10.57-9.2746-10.57-5.2457 0-8.7427 4.1063-8.7427 10.646 0 6.6157 3.497 10.494 8.8183 10.494 6.5385 0 9.199-4.7909 9.199-10.57m-27.293 22.356h10.263c0.83654 2.4333 3.0411 4.3341 7.8305 4.3341 5.8541 0 8.6671-2.8136 8.6671-8.1362v-4.2585h-0.22815c-2.2806 2.585-5.2457 4.5623-10.187 4.5623-8.6667 0-17.182-6.8439-17.182-18.63 0-11.635 6.9944-19.087 16.877-19.087 4.8659 0 8.4385 1.9012 10.795 5.1708h0.15251v-4.1063h9.9591v36.044c0 5.4747-1.7487 9.2007-4.6377 11.862-3.2689 3.0418-8.2864 4.411-14.064 4.411-10.643 0-17.181-4.5631-18.246-12.167" fill="#000000"></path>
          <path d="m281.36 21.672h0.22815c2.6605-4.1824 6.2339-6.3879 11.555-6.3879 8.0587 0 13.456 6.0836 13.456 14.6v25.474h-10.339v-23.953c0-4.1828-2.4327-7.1482-6.7663-7.1482-4.5613 0-7.9062 3.6499-7.9062 8.9729v22.128h-10.339v-39.009h10.111v5.323z" fill="#000000"></path>
          <path d="m191.68 22.585c-8.0591-1.7487-11.86-3.0414-11.86-7.452 0-3.8781 3.8772-6.3875 9.8074-6.3875 5.4107 0 9.5452 2.5397 10.395 7.6041h10.604c-1.0801-10.562-8.9131-16.349-20.923-16.349-12.088 0-20.831 5.5508-20.831 16.273 0 11.33 8.8948 13.916 18.626 16.121 8.2872 1.9008 13.456 2.9653 13.456 8.2883 0 5.0187-4.9411 6.9956-10.567 6.9956-7.7549 0-11.48-2.585-12.24-9.1246h-10.796c0.38024 11.482 8.7427 18.021 23.492 18.021 12.24 0 21.135-6.1589 21.135-17.185 0-11.711-9.1229-14.372-20.298-16.806" fill="#000000"></path>
          <path d="m310.8 15.973c-1.912 0-3.4679 1.5562-3.4679 3.4687 0 1.9125 1.5559 3.4687 3.4679 3.4687 1.9124 0 3.4679-1.5562 3.4679-3.4687 0-1.9125-1.5555-3.4687-3.4679-3.4687m0 7.5817c-2.2673 0-4.112-1.8451-4.112-4.113 0-2.2679 1.8447-4.113 4.112-4.113 2.2678 0 4.1125 1.8451 4.1125 4.113 0 2.2679-1.8447 4.113-4.1125 4.113" fill="#000000"></path>
          <path d="m310.16 18.005v1.3164h0.27386c0.26804 0 0.36944-0.0058193 0.51821-0.012054 0.17246-0.0058193 0.73846-0.035747 0.73846-0.64885 0-0.089783-0.005818-0.39945-0.3337-0.56613-0.16664-0.083548-0.36902-0.089368-0.83363-0.089368h-0.3632zm-0.78002-0.67919h1.3398c0.55977 0.0058193 0.93503 0.0058193 1.304 0.30385 0.26222 0.21448 0.46502 0.54826 0.46502 1.0362 0 0.80431-0.58969 1.0845-0.82823 1.156l0.93503 1.7092h-0.89929l-0.83404-1.5604h-0.70231v1.5604h-0.78002v-4.2053z" fill="#000000"></path>
          </g>
        </svg>
      