<?xml version="1.0" encoding="UTF-8"?>
<!DOCTYPE svg PUBLIC "-//W3C//DTD SVG 1.1//EN" "http://www.w3.org/Graphics/SVG/1.1/DTD/svg11.dtd">
<!-- Creator: CorelDRAW 2017 -->
<svg xmlns="http://www.w3.org/2000/svg" xml:space="preserve" width="367px" height="112px" version="1.1" style="shape-rendering:geometricPrecision; text-rendering:geometricPrecision; image-rendering:optimizeQuality; fill-rule:evenodd; clip-rule:evenodd"
viewBox="0 0 367 112.12"
 xmlns:xlink="http://www.w3.org/1999/xlink">
 <defs>
  <style type="text/css">
   <![CDATA[
    .fil0 {fill:none}
    .fil1 {fill:#004C97}
   ]]>
  </style>
 </defs>
 <g id="Layer_x0020_1">
  <metadata id="CorelCorpID_0Corel-Layer"/>
  <rect class="fil0" width="367" height="112.12"/>
  <g id="_2253174376432">
   <path class="fil1" d="M52.19 0.06l0 112 31.59 0 -0.08 -36.21 31.01 0 0 -30.55 -30.75 0 0 -14.62 37.75 0 -2.08 -30.62 -67.44 0zm223.92 0l-13.59 24.18 -13.33 -24.18 -36.76 0 32.15 54.06 -34.05 57.88 35.73 0.06 15.83 -28.38 16.02 28.32 36.7 0 -34.67 -58.25 31.51 -53.69 -35.54 0z"/>
   <g>
    <path class="fil1" d="M172.07 85.37c0,0 0,0 -0.01,0 -5.06,0 -9.17,-4.11 -9.17,-9.18 0,0 0,0 0,0l0.01 -44.29c0,-5.07 4.1,-9.6 9.17,-9.6 5.06,0 9.57,4.53 9.57,9.6l0 44.42c0,5.07 -4.51,9.05 -9.58,9.05l0.01 0zm-0.16 -85.31c-29.86,0 -54.07,24.21 -54.07,54.07 0,29.86 24.21,54.07 54.07,54.07 29.87,0 54.07,-24.21 54.07,-54.07 0,-29.86 -24.2,-54.07 -54.07,-54.07z"/>
   </g>
  </g>
 </g>
</svg>
