<?xml version="1.0" encoding="utf-8"?><svg xmlns="http://www.w3.org/2000/svg" viewBox="0 0 293.08 84.66"><defs><style>.cls-1{fill:#006d46;}.cls-2{fill:#fff;}</style></defs><title>Asset 1</title><g id="Layer_2" data-name="Layer 2"><g id="Layer_1-2" data-name="Layer 1"><rect class="cls-1" y="0.35" width="84.15" height="84.15" rx="3.18"/><path class="cls-1" d="M144.53,25.42a1,1,0,0,1,.05-1.25l0,0L164.3,1.32A.78.78,0,0,0,163.73,0H151.87a2.31,2.31,0,0,0-1.7.73L129,23.44a.59.59,0,0,1-1-.4V1.18A1.17,1.17,0,0,0,126.83,0h-10.6a1.17,1.17,0,0,0-1.17,1.17V52.49a1.17,1.17,0,0,0,1.17,1.17h10.6A1.17,1.17,0,0,0,128,52.49V41.4a2.36,2.36,0,0,1,.66-1.63l5.28-5.5a1,1,0,0,1,1.44.06L150,52.8a2.32,2.32,0,0,0,1.82.86h11.73a1.17,1.17,0,0,0,.92-1.9Z"/><path class="cls-1" d="M205.24.7a1.19,1.19,0,0,0-1-.69H193.37a1.16,1.16,0,0,0-1,.69L169.43,52a1.19,1.19,0,0,0,1.08,1.66h10.3a2,2,0,0,0,1.81-1.21l3.79-9.15a1.55,1.55,0,0,1,1.44-1h21.91a1.56,1.56,0,0,1,1.45,1L215,52.45a2,2,0,0,0,1.81,1.21h10.31A1.18,1.18,0,0,0,228.18,52Zm.19,30.55H192.18a.78.78,0,0,1-.72-1.08l6.62-15.27c.37-.86,1.08-.86,1.45,0l6.63,15.27A.79.79,0,0,1,205.43,31.25Z"/><path class="cls-1" d="M281.85,51.81,271.64,37.18a.78.78,0,0,1,.28-1.14,18,18,0,0,0,7-6.09,18.39,18.39,0,0,0,2.9-10.37,18.74,18.74,0,0,0-2.86-10.41,18.55,18.55,0,0,0-8.14-6.79A29.82,29.82,0,0,0,258.44,0h-22a1.17,1.17,0,0,0-1.17,1.17V52.34a1.31,1.31,0,0,0,1.31,1.32h10.31a1.31,1.31,0,0,0,1.31-1.32V39.71a.79.79,0,0,1,.79-.78h8.85a2,2,0,0,1,1.61.84l8.91,12.87a2.34,2.34,0,0,0,1.93,1h10.62A1.18,1.18,0,0,0,281.85,51.81Zm-16-26.08c-1.84,1.55-4.57,2.33-8.14,2.33H249a.79.79,0,0,1-.79-.78V11.54a.79.79,0,0,1,.79-.79h8.79c3.57,0,6.31.77,8.14,2.29h0a7.35,7.35,0,0,1,2.73,6.19A8.06,8.06,0,0,1,265.9,25.73Z"/><path class="cls-1" d="M122,79.06h3.45v1.27a4.73,4.73,0,0,1-2.84.9,4.36,4.36,0,0,1,0-8.71,3.74,3.74,0,0,1,3.18,1.78L129,72.58a7.08,7.08,0,0,0-6.43-3.5c-4.49,0-8.15,3-8.15,7.79s3.66,7.79,8.15,7.79a8.72,8.72,0,0,0,6.66-2.93v-5.9H122Z"/><polygon class="cls-1" points="150.95 69.33 147.07 69.33 147.07 84.39 157 84.39 157 81 150.95 81 150.95 69.33"/><path class="cls-1" d="M182,69.08c-4.6,0-8.06,3.21-8.06,7.79s3.46,7.79,8.06,7.79,8-3.21,8-7.79S186.64,69.08,182,69.08Zm0,12.15a4.36,4.36,0,1,1,4.09-4.36A4.08,4.08,0,0,1,182,81.23Z"/><path class="cls-1" d="M218.38,76.62A3.35,3.35,0,0,0,221,73.17c0-1.9-1.43-3.84-4.41-3.84H208V84.39h8.81c2.95,0,4.42-1.9,4.42-4.09A3.61,3.61,0,0,0,218.38,76.62Zm-6.48-4.06h3.77A1.26,1.26,0,0,1,217,73.85a1.28,1.28,0,0,1-1.34,1.31H211.9Zm3.91,8.6H211.9v-2.8h3.91a1.39,1.39,0,0,1,1.49,1.42A1.34,1.34,0,0,1,215.81,81.16Z"/><path class="cls-1" d="M244,69.33l-5.67,15.06h4.23l.76-2.28h6.26l.76,2.28h4.23L248.9,69.33Zm.34,9.51,2.1-6.12,2.12,6.12Z"/><polygon class="cls-1" points="275.85 69.33 271.97 69.33 271.97 84.39 281.9 84.39 281.9 81 275.85 81 275.85 69.33"/><path class="cls-2" d="M27.64,15.54l-4.12,2.11v0L16,21.48a2,2,0,0,0-1.09,1.81v9.43a1.19,1.19,0,0,0,1.73,1.08l6.91-3.52h0l4.76-2.43a2,2,0,0,0,1.1-1.8V16.63A1.2,1.2,0,0,0,27.64,15.54Z"/><path class="cls-2" d="M64.58,15.16,16,39.85a2,2,0,0,0-1.1,1.81l0,9.41a1.21,1.21,0,0,0,1.74,1.09l48.6-24.67a2,2,0,0,0,1.1-1.81V16.24A1.19,1.19,0,0,0,64.58,15.16Z"/><path class="cls-2" d="M69.29,60.26a2.18,2.18,0,0,0-1.06-2.33L43.13,45.42a2.13,2.13,0,0,0-2.11,0L15.92,57.93a2.19,2.19,0,0,0-1.06,2.33l0,8.23a1.33,1.33,0,0,0,1.91,1.06L41,57.37a2.26,2.26,0,0,1,1-.22,2.28,2.28,0,0,1,1.05.22l24.3,12.18a1.33,1.33,0,0,0,1.91-1.06Z"/><path class="cls-1" d="M285.49,83.21a1.72,1.72,0,0,0,1.27.56c.57,0,.8-.29.8-.55s-.43-.47-.91-.59c-.66-.17-1.42-.36-1.42-1.2,0-.66.58-1.17,1.45-1.17a2.07,2.07,0,0,1,1.5.56l-.4.52a1.64,1.64,0,0,0-1.16-.46c-.41,0-.67.2-.67.5s.4.41.88.53c.66.17,1.44.38,1.44,1.24,0,.67-.47,1.24-1.54,1.24a2.14,2.14,0,0,1-1.63-.64Z"/><path class="cls-1" d="M292.38,81.29l-1.23,3h-.3l-1.23-3v3h-.7v-4h1L291,83l1.09-2.69h1v4h-.7Z"/></g></g></svg>